<svg width="40" height="42" viewBox="0 0 40 42" fill="none" xmlns="http://www.w3.org/2000/svg">
<circle cx="11.0001" cy="6" r="6" fill="black"/>
<circle cx="29.0001" cy="6" r="6" fill="black"/>
<path d="M16.0001 40C17.1047 40 18.0001 39.1046 18.0001 38C18.0001 36.8955 17.1047 36 16.0001 36L16.0001 38L16.0001 40ZM7.00015 38L7.00015 36L7.00014 36L7.00015 38ZM38.0002 23L40.0002 23V23L38.0002 23ZM31.5001 15.5C30.3955 15.5 29.5001 16.3955 29.5001 17.5C29.5001 18.6046 30.3955 19.5 31.5001 19.5L31.5001 17.5L31.5001 15.5ZM38.0002 31.5001L40.0002 31.5001L38.0002 31.5001ZM30.5001 38L30.5001 40L30.5001 38ZM21.5002 31.5001L23.5002 31.5001L23.5002 31.5L21.5002 31.5001ZM21.5001 17.5L23.5001 17.5C23.5001 16.3955 22.6046 15.5 21.5001 15.5L21.5001 17.5ZM2.00004 17.5001L2.00003 15.5001C0.89547 15.5001 4.52746e-05 16.3955 3.88234e-05 17.5001L2.00004 17.5001ZM16.0001 38L16.0001 36L7.00015 36L7.00015 38L7.00015 40L16.0001 40L16.0001 38ZM38.0002 23L40.0002 23C40.0002 20.5032 38.9813 18.5253 37.2702 17.2293C35.6336 15.9896 33.5387 15.5 31.5001 15.5L31.5001 17.5L31.5001 19.5C32.9615 19.5 34.1167 19.8585 34.855 20.4178C35.519 20.9207 36.0002 21.6929 36.0002 23L38.0002 23ZM38.0002 31.5001L40.0002 31.5001C40.0003 27.0002 40.0002 26.8036 40.0002 23L38.0002 23L36.0002 23C36.0002 26.8042 36.0003 27 36.0002 31.5L38.0002 31.5001ZM30.5001 38L30.5001 40C32.6187 40.0001 34.9372 39.4119 36.7794 38.0428C38.6877 36.6244 40.0002 34.4179 40.0002 31.5001L38.0002 31.5001L36.0002 31.5C36.0002 33.0822 35.3442 34.1256 34.3933 34.8323C33.3763 35.5882 31.9447 36 30.5001 36L30.5001 38ZM21.5002 31.5001L19.5002 31.5001C19.5002 34.7079 20.9586 36.9816 23.2244 38.3403C25.3423 39.6103 28.0158 40 30.5001 40L30.5001 38L30.5001 36C28.3252 36 26.4988 35.6397 25.2815 34.9098C24.2121 34.2685 23.5002 33.2922 23.5002 31.5001L21.5002 31.5001ZM21.5001 17.5L19.5001 17.5001L19.5002 31.5001L21.5002 31.5001L23.5002 31.5L23.5001 17.5L21.5001 17.5ZM2.00004 17.5001L2.00004 19.5001L21.5001 19.5L21.5001 17.5L21.5001 15.5L2.00003 15.5001L2.00004 17.5001ZM7.00015 38L7.00014 36C5.63137 36 4.98278 35.619 4.65322 35.2641C4.29874 34.8824 4.00008 34.1934 4.00004 33L2.00004 33L3.79924e-05 33.0001C0.000102096 34.8067 0.451513 36.6177 1.72207 37.986C3.01756 39.3811 4.86896 40 7.00017 40L7.00015 38ZM2.00004 33L4.00004 33C3.99998 31.5 3.99998 27.6251 4 24.1251C4.00001 22.3751 4.00001 20.7188 4.00002 19.5001C4.00003 18.8907 4.00003 18.3907 4.00003 18.0431C4.00003 17.8692 4.00003 17.7335 4.00004 17.6412C4.00004 17.5951 4.00003 17.5598 4.00004 17.536C4.00004 17.5242 4.00004 17.5152 4.00004 17.5092C4.00004 17.5061 4.00004 17.5039 4.00004 17.5024C4.00004 17.5016 4.00004 17.501 4.00004 17.5007C4.00004 17.5005 4.00004 17.5003 4.00004 17.5002C4.00004 17.5001 4.00003 17.5001 2.00004 17.5001C3.88234e-05 17.5001 3.78745e-05 17.5001 3.59766e-05 17.5002C3.78745e-05 17.5003 3.52175e-05 17.5004 3.54073e-05 17.5006C3.55971e-05 17.501 3.61664e-05 17.5016 3.71154e-05 17.5023C3.52175e-05 17.5038 3.82541e-05 17.5061 3.63562e-05 17.5091C3.63562e-05 17.5151 3.84439e-05 17.5241 3.59767e-05 17.536C3.4838e-05 17.5597 3.76849e-05 17.595 3.54075e-05 17.6412C3.46485e-05 17.7335 3.55976e-05 17.8692 3.12327e-05 18.043C2.97149e-05 18.3907 2.53505e-05 18.8907 2.09863e-05 19.5001C1.24477e-05 20.7188 4.19432e-06 22.3751 -1.68653e-06 24.1251C-1.48716e-05 27.625 -1.38695e-05 31.5001 3.79924e-05 33.0001L2.00004 33Z" fill="black"/>
</svg>
